<svg xmlns="http://www.w3.org/2000/svg" viewBox="0 0 1000 1000"><path fill="#30383B" d="M879.45 616.21a23.62 23.62 0 0 0-33.4-1.19l-230.16 214.5V460.19a23.65 23.65 0 0 0-23.67-23.62 23.64 23.64 0 0 0-23.64 23.62V848.6l-383.8-157.37-42.6-383.52 385.66 98.84a23.67 23.67 0 1 0 11.74-45.84l-349.94-89.64L462.2 158.63a23.7 23.7 0 0 0 12.84-30.94 23.66 23.66 0 0 0-30.9-12.83L105.87 254.5c-.31.12-.57.3-.88.48-.63.27-1.23.62-1.83.97a21.65 21.65 0 0 0-2.88 1.95c-.28.2-.62.36-.88.6-.19.17-.31.4-.49.54-1 .9-1.87 1.91-2.69 2.98-.26.36-.58.62-.8.99a22.57 22.57 0 0 0-2.43 4.54c-.15.37-.21.75-.37 1.15-.4 1.26-.76 2.54-1.01 3.88-.08.54-.1 1.13-.17 1.72-.1 1.18-.12 2.4-.03 3.6 0 .35-.06.74-.03 1.07l47.97 431.43a23.67 23.67 0 0 0 14.53 19.3l429.06 175.9v.03l.32.14c.9.37 1.83.55 2.75.83.53.15 1.04.35 1.59.44 1.53.32 3.1.49 4.63.49 2.08 0 4.13-.38 6.19-.92.33-.1.75-.21 1.13-.3a24.2 24.2 0 0 0 5.58-2.69c.12-.06.2-.06.3-.12.28-.18.53-.46.82-.72.7-.52 1.44-.97 2.1-1.64l269.94-251.48a23.67 23.67 0 0 0 1.17-33.45z"/><path fill="#00B1EB" d="M907.3 211.06v-.13l-.11-.31c-.37-2.02-1.01-3.85-1.86-5.62a22.28 22.28 0 0 0-4.06-6.19l-.68-.64a23.4 23.4 0 0 0-4.26-3.3c-.37-.24-.72-.48-1.1-.7a23.95 23.95 0 0 0-5.89-2.24c-.08-.03-.15-.09-.23-.09l-341.45-75.56a23.65 23.65 0 1 0-10.23 46.16l284.65 63.05-207.13 128.27a23.6 23.6 0 0 0-7.67 32.55 23.66 23.66 0 0 0 32.57 7.68l218.18-135.14-15.42 294.53A23.62 23.62 0 0 0 865 578.23c.41.07.84.07 1.25.07 12.5 0 22.94-9.81 23.61-22.45l17.77-339.66c.1-1.78-.04-3.46-.33-5.13z"/></svg>